<?xml version="1.0" encoding="UTF-8" standalone="no"?>
<svg width="100px" height="101px" viewBox="0 0 100 101" version="1.1" xmlns="http://www.w3.org/2000/svg" xmlns:xlink="http://www.w3.org/1999/xlink" xmlns:sketch="http://www.bohemiancoding.com/sketch/ns">
    <!-- Generator: Sketch 3.3.1 (12005) - http://www.bohemiancoding.com/sketch -->
    <title>Light bulb</title>
    <desc>Created with Sketch.</desc>
    <defs></defs>
    <g id="Welcome" stroke="none" stroke-width="1" fill="none" fill-rule="evenodd" sketch:type="MSPage">
        <g id="Home" sketch:type="MSArtboardGroup" transform="translate(-427.000000, -832.000000)">
            <g id="Specs" sketch:type="MSLayerGroup" transform="translate(381.000000, 832.000000)">
                <g id="Light-bulb" transform="translate(46.000000, 0.850000)" sketch:type="MSShapeGroup">
                    <circle id="Oval-1-Copy-2" fill="#61A5CE" cx="50" cy="50" r="50"></circle>
                    <g id="light-bulb" transform="translate(17.958984, 16.917969)" fill="#FFFFFF">
                        <g id="Group">
                            <path d="M31.0410156,15.1229186 C22.6071056,15.1229186 15.767515,21.6732334 15.767515,29.7544646 C15.767515,39.3507616 22.4314267,41.7970578 22.4314267,47.3804779 C22.4314267,48.7608124 23.4868212,50.0447217 25.0718944,50.9878402 C24.7403499,51.2639071 24.5554247,51.5663919 24.5554247,51.8834065 C24.5554247,52.3087345 24.889611,52.7063236 25.4642,53.0471144 C24.9252751,53.3813006 24.6122232,53.7656809 24.6122232,54.176479 C24.6122232,54.5912398 24.9318796,54.9795827 25.4826925,55.3164107 C24.9199915,55.6545597 24.5924097,56.0495071 24.5924097,56.4682306 C24.5924097,56.9807375 25.075857,57.449655 25.8842443,57.8313935 C25.5711924,58.1153857 25.3915508,58.4297586 25.3915508,58.7599821 C25.3915508,59.7374439 26.9145419,60.5682864 29.0557115,60.9011518 C29.4321664,61.5985839 30.1956433,62.0820313 31.085926,62.0820313 C31.9748879,62.0820313 32.7370439,61.6025466 33.1134988,60.9077562 C35.2758027,60.5801745 36.8159654,59.7440484 36.8159654,58.7639448 C36.8159654,58.4376839 36.6429283,58.1272738 36.3364808,57.8472442 C37.1620397,57.4628639 37.6547333,56.987342 37.6547333,56.4708723 C37.6547333,56.0561115 37.3363978,55.6664477 36.784264,55.3309406 C37.345644,54.9914707 37.6745467,54.5991651 37.6745467,54.1804417 C37.6745467,53.7551137 37.3390396,53.3575245 36.7657714,53.0154129 C37.3073381,52.6825475 37.6190691,52.2968464 37.6190691,51.8860483 C37.6190691,51.5571456 37.4196141,51.2467355 37.0629727,50.9640641 C38.6229488,50.0222665 39.6598508,48.7515662 39.6598508,47.3831197 C39.6598508,41.7970578 46.3158371,39.3520824 46.3158371,29.7571064 C46.3145162,21.6732334 39.4762465,15.1229186 31.0410156,15.1229186 L31.0410156,15.1229186 Z M39.0165753,38.8091949 C37.4949051,41.044148 35.7737798,43.5696979 35.6681083,47.0410081 C35.1450342,47.6235224 33.2786105,48.5706036 31.0462992,48.5706036 C28.812667,48.5706036 26.9449225,47.6235224 26.4231692,47.0383663 C26.3174977,43.5657352 24.5937306,41.0401853 23.0694186,38.8065531 C21.3694277,36.3153465 19.7645411,33.9628338 19.7645411,29.7531437 C19.7645411,23.889694 24.8235662,19.1186238 31.0410156,19.1186238 C37.2597859,19.1186238 42.318811,23.889694 42.318811,29.7531437 C42.318811,33.9641547 40.7139245,36.3179883 39.0165753,38.8091949 L39.0165753,38.8091949 Z" id="Shape"></path>
                            <path d="M31.0410156,9.99124435 C32.1399997,9.99124435 33.0395287,8.80243949 33.0395287,7.34945578 L33.0395287,2.64178856 C33.0395287,1.18880485 32.1399997,0 31.0410156,0 C29.9420316,0 29.0425026,1.18880485 29.0425026,2.64178856 L29.0425026,7.34945578 C29.0425026,8.80376039 29.9420316,9.99124435 31.0410156,9.99124435 L31.0410156,9.99124435 Z" id="Shape"></path>
                            <path d="M20.8001223,12.7360627 C21.752487,12.1865706 21.9347704,10.707169 21.2095995,9.44967769 L18.8570868,5.37207704 C18.1305949,4.11326479 16.7568649,3.5333922 15.8045001,4.08288423 C14.8521353,4.63237625 14.668531,6.11177784 15.393702,7.3692692 L17.7488565,11.4468698 C18.4753483,12.7056821 19.8477575,13.2855547 20.8001223,12.7360627 L20.8001223,12.7360627 Z" id="Shape"></path>
                            <path d="M12.0135335,17.1808719 L7.93857463,14.8270383 C6.67976238,14.1005465 5.20036079,14.2841508 4.65086877,15.2365155 C4.10137675,16.1888803 4.67992844,17.5612895 5.94006159,18.2877813 L10.0163413,20.6416149 C11.2751536,21.3681068 12.7545552,21.1845025 13.3027263,20.2321377 C13.8508974,19.2797729 13.2723457,17.9073638 12.0135335,17.1808719 L12.0135335,17.1808719 Z" id="Shape"></path>
                            <path d="M56.1432906,42.6582808 L52.0670108,40.3057681 C50.8081986,39.5779554 49.328797,39.7615597 48.7806258,40.7152453 C48.2311338,41.6676101 48.8083646,43.0400193 50.0711395,43.7665111 L54.1447775,46.1203447 C55.4035898,46.8468366 56.8829914,46.6632323 57.4324834,45.7108675 C57.9819754,44.7571818 57.4034237,43.3847727 56.1432906,42.6582808 L56.1432906,42.6582808 Z" id="Shape"></path>
                            <path d="M10.5592289,30.4730311 C10.5592289,29.3727261 9.37042404,28.474518 7.91744033,28.474518 L3.20977311,28.474518 C1.75678939,28.474518 0.567984541,29.374047 0.567984541,30.4730311 C0.567984541,31.5720151 1.75678939,32.4715441 3.20977311,32.4715441 L7.91744033,32.4715441 C9.37042404,32.4715441 10.5592289,31.5720151 10.5592289,30.4730311 L10.5592289,30.4730311 Z" id="Shape"></path>
                            <path d="M58.8722581,28.474518 L54.1659118,28.474518 C52.7116072,28.474518 51.5241233,29.374047 51.5241233,30.4730311 C51.5241233,31.5720151 52.7116072,32.4715441 54.1659118,32.4715441 L58.8722581,32.4715441 C60.3265627,32.4715441 61.5140467,31.5720151 61.5140467,30.4730311 C61.5140467,29.374047 60.3252419,28.474518 58.8722581,28.474518 L58.8722581,28.474518 Z" id="Shape"></path>
                            <path d="M10.0150204,40.3057681 L5.93874069,42.6582808 C4.67992844,43.3847727 4.10005585,44.7571818 4.64954787,45.7108675 C5.19903989,46.6632323 6.67844149,46.8455157 7.93725374,46.1203447 L12.0122126,43.7665111 C13.2710249,43.0400193 13.8508974,41.6676101 13.3014054,40.7152453 C12.7532343,39.7642015 11.2738327,39.5779554 10.0150204,40.3057681 L10.0150204,40.3057681 Z" id="Shape"></path>
                            <path d="M52.0670108,20.6416149 L56.1432906,18.2877813 C57.4021028,17.5612895 57.9819754,16.1888803 57.4324834,15.2365155 C56.8829914,14.2841508 55.4035898,14.1005465 54.1447775,14.8270383 L50.0698187,17.1808719 C48.8123273,17.9073638 48.2311338,19.2797729 48.7806258,20.2321377 C49.328797,21.1845025 50.8081986,21.3681068 52.0670108,20.6416149 L52.0670108,20.6416149 Z" id="Shape"></path>
                            <path d="M46.2788521,4.08156333 C45.3251664,3.53207131 43.9514363,4.1119439 43.2249445,5.37075615 L40.8724318,9.4483568 C40.1459399,10.707169 40.3295442,12.1852498 41.281909,12.7347418 C42.2355947,13.2842338 43.6080038,12.7043612 44.3344957,11.445549 L46.6896502,7.3679483 C47.4148211,6.11045695 47.2298959,4.63105535 46.2788521,4.08156333 L46.2788521,4.08156333 Z" id="Shape"></path>
                        </g>
                    </g>
                </g>
            </g>
        </g>
    </g>
</svg>