<?xml version="1.0" encoding="UTF-8" standalone="no"?>
<svg width="100px" height="101px" viewBox="0 0 100 101" version="1.1" xmlns="http://www.w3.org/2000/svg" xmlns:xlink="http://www.w3.org/1999/xlink" xmlns:sketch="http://www.bohemiancoding.com/sketch/ns">
    <!-- Generator: Sketch 3.3.1 (12005) - http://www.bohemiancoding.com/sketch -->
    <title>Money</title>
    <desc>Created with Sketch.</desc>
    <defs></defs>
    <g id="Welcome" stroke="none" stroke-width="1" fill="none" fill-rule="evenodd" sketch:type="MSPage">
        <g id="Home" sketch:type="MSArtboardGroup" transform="translate(-913.000000, -832.000000)">
            <g id="Specs" sketch:type="MSLayerGroup" transform="translate(381.000000, 832.000000)">
                <g id="Money" transform="translate(532.000000, 0.850000)" sketch:type="MSShapeGroup">
                    <circle id="Oval-1" fill="#61A5CE" cx="50" cy="50" r="50"></circle>
                    <path d="M65.849754,60.6351529 C65.8834652,56.0599765 64.0692193,52.4416294 60.4504813,49.8863882 C57.6555294,47.9189941 54.2637005,46.8927353 50.9831016,45.9065647 C44.1491337,43.8412529 42.1666738,42.7534118 42.1666738,39.4955176 C42.1666738,35.8665941 46.8975401,34.5754118 50.947508,34.5754118 C53.896984,34.5754118 57.2903529,35.4895941 59.3977326,36.8444059 L63.5757005,30.3941235 C60.8214759,28.6142059 57.0519786,27.4001294 53.3297112,27.0233 L53.3297112,21 L45.6226738,21 L45.6226738,27.4456765 C38.7717647,28.9480471 34.4560428,33.4116588 34.4560428,39.4955176 C34.4560428,43.7563 36.2321283,47.1353118 39.7249198,49.5186 C42.3814332,51.3380941 45.6213048,52.3150529 48.7509733,53.2609647 C55.4542032,55.2807294 58.1762567,56.5115235 58.1452834,60.5875588 L58.1451123,60.6175824 C58.1451123,64.0387294 53.5971765,65.2548529 49.700877,65.2548529 C46.0203636,65.2548529 42.0179679,63.6468882 39.7492193,61.2560941 L34.150246,66.5356294 C37.0234011,69.5649353 41.1977754,71.7066706 45.6225027,72.5461353 L45.6225027,78.8302647 L53.3297112,78.8302647 L53.3297112,72.6814118 C60.9424599,71.5951059 65.8422246,67.0262412 65.849754,60.6351529 L65.849754,60.6351529 Z" id="Shape" fill="#FFFFFF"></path>
                </g>
            </g>
        </g>
    </g>
</svg>